<svg xmlns="http://www.w3.org/2000/svg" viewBox="0 0 188.11 190.95"><defs><style>.cls-1{fill:#fff;}</style></defs><g id="Layer_2" data-name="Layer 2"><g id="图层_1" data-name="图层 1"><polygon class="cls-1" points="95.63 0 64.36 18 64.36 59.91 94.71 42.57 152.25 75.28 152.12 86.45 94.58 52.03 63.96 70.95 64.09 110.76 94.97 92.1 95.23 73.31 76.99 83.73 77.36 83.69 78.02 76.99 94.71 67.27 166.18 108 166.05 67.01 95.5 25.09 77.36 36.66 77.63 25.49 77.63 25.49 81.96 23.25 81.44 29.82 93.53 22.47 95.1 21.02 95.63 0"/><polygon class="cls-1" points="0 161.35 31.14 179.56 67.53 158.77 37.41 141.02 37.26 74.83 47.02 69.4 45.69 136.44 77.31 153.63 111.81 133.76 80.29 116.22 63.85 125.31 81.94 135.98 81.72 135.67 75.58 138.43 58.86 128.76 58.75 46.5 23.23 66.96 21.85 149.01 40.89 159.01 31.06 164.33 31.06 164.33 26.97 161.67 32.94 158.87 20.55 152.03 18.51 151.37 0 161.35"/><polygon class="cls-1" points="187.74 164.32 188.11 128.24 152.01 106.95 151.53 141.9 94.13 174.86 84.57 169.08 143.45 136.99 142.7 101.01 108.34 80.9 108.73 116.97 124.78 126.74 125.08 105.74 124.92 106.08 130.36 110.05 130.26 129.36 58.87 170.24 94.25 190.95 166.19 151.46 165.44 129.97 174.92 135.87 174.92 135.87 174.65 140.74 169.25 136.95 169.45 151.09 169.9 153.19 187.74 164.32"/></g></g></svg>